{
  "accessors": [
    {
      "bufferView": 2,
      "componentType": 5126,
      "count": 1584,
      "max": [
        2.0,
        2.0999999046325684,
        3.0
      ],
      "min": [
        -2.0,
        0.0,
        -3.5
      ],
      "type": "VEC3"
    },
    {
      "bufferView": 2,
      "byteOffset": 19008,
      "componentType": 5126,
      "count": 1584,
      "max": [
        1.0,
        1.0,
        1.0
      ],
      "min": [
        -1.0,
        -1.0,
        -1.0
      ],
      "type": "VEC3"
    },
    {
      "bufferView": 1,
      "componentType": 5126,
      "count": 1584,
      "max": [
        3.0,
        4.4848504066467285
      ],
      "min": [
        -3.5,
        -4.4848504066467285
      ],
      "type": "VEC2"
    },
    {
      "bufferView": 0,
      "componentType": 5125,
      "count": 8154,
      "type": "SCALAR"
    },
    {
      "bufferView": 2,
      "byteOffset": 38016,
      "componentType": 5126,
      "count": 718,
      "max": [
        -0.30000001192092896,
        1.1963000297546387,
        3.799999952316284
      ],
      "min": [
        -0.699999988079071,
        -0.4000000059604645,
        3.0
      ],
      "type": "VEC3"
    },
    {
      "bufferView": 2,
      "byteOffset": 46632,
      "componentType": 5126,
      "count": 718,
      "max": [
        1.0,
        1.0,
        1.0
      ],
      "min": [
        -1.0,
        -1.0,
        -1.0
      ],
      "type": "VEC3"
    },
    {
      "bufferView": 1,
      "byteOffset": 12672,
      "componentType": 5126,
      "count": 718,
      "max": [
        1.0,
        0.5656959414482117
      ],
      "min": [
        -1.2432917356491089,
        -0.5656960010528564
      ],
      "type": "VEC2"
    },
    {
      "bufferView": 0,
      "byteOffset": 32616,
      "componentType": 5125,
      "count": 3432,
      "type": "SCALAR"
    },
    {
      "bufferView": 2,
      "byteOffset": 55248,
      "componentType": 5126,
      "count": 709,
      "max": [
        -0.9000000357627869,
        1.1963000297546387,
        3.799999952316284
      ],
      "min": [
        -1.2999999523162842,
        -0.4000000059604645,
        3.0
      ],
      "type": "VEC3"
    },
    {
      "bufferView": 2,
      "byteOffset": 63756,
      "componentType": 5126,
      "count": 709,
      "max": [
        1.0,
        1.0,
        1.0
      ],
      "min": [
        -1.0,
        -1.0,
        -1.0
      ],
      "type": "VEC3"
    },
    {
      "bufferView": 1,
      "byteOffset": 18416,
      "componentType": 5126,
      "count": 709,
      "max": [
        1.0,
        0.5656959414482117
      ],
      "min": [
        -1.2432911396026611,
        -0.5656960010528564
      ],
      "type": "VEC2"
    },
    {
      "bufferView": 0,
      "byteOffset": 46344,
      "componentType": 5125,
      "count": 3378,
      "type": "SCALAR"
    },
    {
      "bufferView": 2,
      "byteOffset": 72264,
      "componentType": 5126,
      "count": 44,
      "max": [
        1.4521616697311401,
        1.7061197757720947,
        -0.2162523865699768
      ],
      "min": [
        -0.0327584333717823,
        1.681890845298767,
        -1.045432209968567
      ],
      "type": "VEC3"
    },
    {
      "bufferView": 2,
      "byteOffset": 72792,
      "componentType": 5126,
      "count": 44,
      "max": [
        1.0,
        1.0,
        1.0
      ],
      "min": [
        -1.0,
        -1.0,
        -1.0
      ],
      "type": "VEC3"
    },
    {
      "bufferView": 1,
      "byteOffset": 24088,
      "componentType": 5126,
      "count": 44,
      "max": [
        1.41143000125885,
        0.07349005341529846
      ],
      "min": [
        -1.371663212776184,
        -1.41143000125885
      ],
      "type": "VEC2"
    },
    {
      "bufferView": 0,
      "byteOffset": 59856,
      "componentType": 5125,
      "count": 108,
      "type": "SCALAR"
    },
    {
      "bufferView": 2,
      "byteOffset": 73320,
      "componentType": 5126,
      "count": 44,
      "max": [
        0.7964214086532593,
        1.7061197757720947,
        -1.045432209968567
      ],
      "min": [
        -0.0327584333717823,
        1.681890845298767,
        -2.5303523540496826
      ],
      "type": "VEC3"
    },
    {
      "bufferView": 2,
      "byteOffset": 73848,
      "componentType": 5126,
      "count": 44,
      "max": [
        1.0,
        1.0,
        1.0
      ],
      "min": [
        -1.0,
        -1.0,
        -1.0
      ],
      "type": "VEC3"
    },
    {
      "bufferView": 1,
      "byteOffset": 24440,
      "componentType": 5126,
      "count": 44,
      "max": [
        1.41143000125885,
        0.41458994150161743
      ],
      "min": [
        -1.41143000125885,
        -0.41458994150161743
      ],
      "type": "VEC2"
    },
    {
      "bufferView": 0,
      "byteOffset": 60288,
      "componentType": 5125,
      "count": 108,
      "type": "SCALAR"
    },
    {
      "bufferView": 2,
      "byteOffset": 74376,
      "componentType": 5126,
      "count": 44,
      "max": [
        0.1387503743171692,
        1.7061197757720947,
        0.6087796688079834
      ],
      "min": [
        -0.6904295086860657,
        1.681890845298767,
        -0.8761404752731323
      ],
      "type": "VEC3"
    },
    {
      "bufferView": 2,
      "byteOffset": 74904,
      "componentType": 5126,
      "count": 44,
      "max": [
        1.0,
        1.0,
        1.0
      ],
      "min": [
        -1.0,
        -1.0,
        -1.0
      ],
      "type": "VEC3"
    },
    {
      "bufferView": 1,
      "byteOffset": 24792,
      "componentType": 5126,
      "count": 44,
      "max": [
        1.41143000125885,
        0.41458994150161743
      ],
      "min": [
        -1.41143000125885,
        -0.41458994150161743
      ],
      "type": "VEC2"
    },
    {
      "bufferView": 0,
      "byteOffset": 60720,
      "componentType": 5125,
      "count": 108,
      "type": "SCALAR"
    },
    {
      "bufferView": 2,
      "byteOffset": 75432,
      "componentType": 5126,
      "count": 44,
      "max": [
        -0.04067244008183479,
        1.7061197757720947,
        -0.8590143322944641
      ],
      "min": [
        -1.525592565536499,
        1.681890845298767,
        -1.6881941556930542
      ],
      "type": "VEC3"
    },
    {
      "bufferView": 2,
      "byteOffset": 75960,
      "componentType": 5126,
      "count": 44,
      "max": [
        1.0,
        1.0,
        1.0
      ],
      "min": [
        -1.0,
        -1.0,
        -1.0
      ],
      "type": "VEC3"
    },
    {
      "bufferView": 1,
      "byteOffset": 25144,
      "componentType": 5126,
      "count": 44,
      "max": [
        1.41143000125885,
        1.41143000125885
      ],
      "min": [
        -1.371663212776184,
        -0.07349005341529846
      ],
      "type": "VEC2"
    },
    {
      "bufferView": 0,
      "byteOffset": 61152,
      "componentType": 5125,
      "count": 108,
      "type": "SCALAR"
    },
    {
      "bufferView": 2,
      "byteOffset": 76488,
      "componentType": 5126,
      "count": 324,
      "max": [
        0.41969963908195496,
        1.8061197996139526,
        -0.6144790649414063
      ],
      "min": [
        -0.3309003710746765,
        1.7061197757720947,
        -1.3650790452957153
      ],
      "type": "VEC3"
    },
    {
      "bufferView": 2,
      "byteOffset": 80376,
      "componentType": 5126,
      "count": 324,
      "max": [
        1.0,
        1.0,
        1.0
      ],
      "min": [
        -1.0,
        -1.0,
        -1.0
      ],
      "type": "VEC3"
    },
    {
      "bufferView": 1,
      "byteOffset": 25496,
      "componentType": 5126,
      "count": 324,
      "max": [
        0.37529999017715454,
        1.0615284442901611
      ],
      "min": [
        -0.37529999017715454,
        -1.0615284442901611
      ],
      "type": "VEC2"
    },
    {
      "bufferView": 0,
      "byteOffset": 61584,
      "componentType": 5125,
      "count": 1140,
      "type": "SCALAR"
    }
  ],
  "asset": {
    "extras": {
      "author": "Tekologist (https://sketchfab.com/tekologist)",
      "license": "CC-BY-4.0 (http://creativecommons.org/licenses/by/4.0/)",
      "source": "https://sketchfab.com/3d-models/simple-fanair-conditioner-fbx-a0b1ae93faea45d98baa50fea99f7c1b",
      "title": "Simple Fan/Air Conditioner - FBX"
    },
    "generator": "Sketchfab-12.67.0",
    "version": "2.0"
  },
  "bufferViews": [
    {
      "buffer": 0,
      "byteLength": 66144,
      "name": "floatBufferViews",
      "target": 34963
    },
    {
      "buffer": 0,
      "byteLength": 28088,
      "byteOffset": 66144,
      "byteStride": 8,
      "name": "floatBufferViews",
      "target": 34962
    },
    {
      "buffer": 0,
      "byteLength": 84264,
      "byteOffset": 94232,
      "byteStride": 12,
      "name": "floatBufferViews",
      "target": 34962
    }
  ],
  "buffers": [
    {
      "byteLength": 178496,
      "uri": "scene.bin"
    }
  ],
  "materials": [
    {
      "doubleSided": true,
      "name": "Steel_-_Satin",
      "pbrMetallicRoughness": {
        "baseColorFactor": [
          0.627451,
          0.627451,
          0.627451,
          1.0
        ],
        "metallicFactor": 0.0,
        "roughnessFactor": 0.9577051494623774
      }
    }
  ],
  "meshes": [
    {
      "name": "UNIT_Steel - Satin_0",
      "primitives": [
        {
          "attributes": {
            "NORMAL": 1,
            "POSITION": 0,
            "TEXCOORD_0": 2
          },
          "indices": 3,
          "material": 0,
          "mode": 4
        }
      ]
    },
    {
      "name": "PIPE (1)_Steel - Satin_0",
      "primitives": [
        {
          "attributes": {
            "NORMAL": 5,
            "POSITION": 4,
            "TEXCOORD_0": 6
          },
          "indices": 7,
          "material": 0,
          "mode": 4
        }
      ]
    },
    {
      "name": "PIPE_Steel - Satin_0",
      "primitives": [
        {
          "attributes": {
            "NORMAL": 9,
            "POSITION": 8,
            "TEXCOORD_0": 10
          },
          "indices": 11,
          "material": 0,
          "mode": 4
        }
      ]
    },
    {
      "name": "BLADE_Steel - Satin_0",
      "primitives": [
        {
          "attributes": {
            "NORMAL": 13,
            "POSITION": 12,
            "TEXCOORD_0": 14
          },
          "indices": 15,
          "material": 0,
          "mode": 4
        }
      ]
    },
    {
      "name": "BLADE (1)_Steel - Satin_0",
      "primitives": [
        {
          "attributes": {
            "NORMAL": 17,
            "POSITION": 16,
            "TEXCOORD_0": 18
          },
          "indices": 19,
          "material": 0,
          "mode": 4
        }
      ]
    },
    {
      "name": "BLADE (1) (1)_Steel - Satin_0",
      "primitives": [
        {
          "attributes": {
            "NORMAL": 21,
            "POSITION": 20,
            "TEXCOORD_0": 22
          },
          "indices": 23,
          "material": 0,
          "mode": 4
        }
      ]
    },
    {
      "name": "BLADE (1) (1) (1)_Steel - Satin_0",
      "primitives": [
        {
          "attributes": {
            "NORMAL": 25,
            "POSITION": 24,
            "TEXCOORD_0": 26
          },
          "indices": 27,
          "material": 0,
          "mode": 4
        }
      ]
    },
    {
      "name": "FANBLADECENTRE_Steel - Satin_0",
      "primitives": [
        {
          "attributes": {
            "NORMAL": 29,
            "POSITION": 28,
            "TEXCOORD_0": 30
          },
          "indices": 31,
          "material": 0,
          "mode": 4
        }
      ]
    }
  ],
  "nodes": [
    {
      "children": [
        1
      ],
      "matrix": [
        1.0,
        0.0,
        0.0,
        0.0,
        0.0,
        2.220446049250313e-16,
        -1.0,
        0.0,
        0.0,
        1.0,
        2.220446049250313e-16,
        0.0,
        0.0,
        0.0,
        0.0,
        1.0
      ],
      "name": "Sketchfab_model"
    },
    {
      "children": [
        2
      ],
      "matrix": [
        1.0,
        0.0,
        0.0,
        0.0,
        0.0,
        0.0,
        1.0,
        0.0,
        0.0,
        -1.0,
        0.0,
        0.0,
        0.0,
        0.0,
        0.0,
        1.0
      ],
      "name": "164bde63a17e42b58bf68940419175af.fbx"
    },
    {
      "children": [
        3
      ],
      "name": "RootNode"
    },
    {
      "children": [
        4,
        6,
        8,
        10,
        12,
        14,
        16,
        18
      ],
      "name": "VENTFAN v1"
    },
    {
      "children": [
        5
      ],
      "matrix": [
        10.0,
        0.0,
        0.0,
        0.0,
        0.0,
        10.0,
        0.0,
        0.0,
        0.0,
        0.0,
        10.0,
        0.0,
        0.0,
        0.0,
        0.0,
        1.0
      ],
      "name": "UNIT"
    },
    {
      "mesh": 0,
      "name": "UNIT_Steel - Satin_0"
    },
    {
      "children": [
        7
      ],
      "matrix": [
        10.0,
        0.0,
        0.0,
        0.0,
        0.0,
        10.0,
        0.0,
        0.0,
        0.0,
        0.0,
        10.0,
        0.0,
        0.0,
        0.0,
        0.0,
        1.0
      ],
      "name": "PIPE (1)"
    },
    {
      "mesh": 1,
      "name": "PIPE (1)_Steel - Satin_0"
    },
    {
      "children": [
        9
      ],
      "matrix": [
        10.0,
        0.0,
        0.0,
        0.0,
        0.0,
        10.0,
        0.0,
        0.0,
        0.0,
        0.0,
        10.0,
        0.0,
        0.0,
        0.0,
        0.0,
        1.0
      ],
      "name": "PIPE"
    },
    {
      "mesh": 2,
      "name": "PIPE_Steel - Satin_0"
    },
    {
      "children": [
        11
      ],
      "matrix": [
        10.0,
        0.0,
        0.0,
        0.0,
        0.0,
        10.0,
        0.0,
        0.0,
        0.0,
        0.0,
        10.0,
        0.0,
        0.0,
        0.0,
        0.0,
        1.0
      ],
      "name": "BLADE"
    },
    {
      "mesh": 3,
      "name": "BLADE_Steel - Satin_0"
    },
    {
      "children": [
        13
      ],
      "matrix": [
        10.0,
        0.0,
        0.0,
        0.0,
        0.0,
        10.0,
        0.0,
        0.0,
        0.0,
        0.0,
        10.0,
        0.0,
        0.0,
        0.0,
        0.0,
        1.0
      ],
      "name": "BLADE (1)"
    },
    {
      "mesh": 4,
      "name": "BLADE (1)_Steel - Satin_0"
    },
    {
      "children": [
        15
      ],
      "matrix": [
        10.0,
        0.0,
        0.0,
        0.0,
        0.0,
        10.0,
        0.0,
        0.0,
        0.0,
        0.0,
        10.0,
        0.0,
        0.0,
        0.0,
        0.0,
        1.0
      ],
      "name": "BLADE (1) (1)"
    },
    {
      "mesh": 5,
      "name": "BLADE (1) (1)_Steel - Satin_0"
    },
    {
      "children": [
        17
      ],
      "matrix": [
        10.0,
        0.0,
        0.0,
        0.0,
        0.0,
        10.0,
        0.0,
        0.0,
        0.0,
        0.0,
        10.0,
        0.0,
        0.0,
        0.0,
        0.0,
        1.0
      ],
      "name": "BLADE (1) (1) (1)"
    },
    {
      "mesh": 6,
      "name": "BLADE (1) (1) (1)_Steel - Satin_0"
    },
    {
      "children": [
        19
      ],
      "matrix": [
        10.0,
        0.0,
        0.0,
        0.0,
        0.0,
        10.0,
        0.0,
        0.0,
        0.0,
        0.0,
        10.0,
        0.0,
        0.0,
        0.0,
        0.0,
        1.0
      ],
      "name": "FANBLADECENTRE"
    },
    {
      "mesh": 7,
      "name": "FANBLADECENTRE_Steel - Satin_0"
    }
  ],
  "scene": 0,
  "scenes": [
    {
      "name": "Sketchfab_Scene",
      "nodes": [
        0
      ]
    }
  ]
}
